<svg width="38" height="50" viewBox="0 0 38 50" fill="none" xmlns="http://www.w3.org/2000/svg">
<path d="M25 40.5273H12.5C11.5234 40.5924 11.0026 41.1133 10.9375 42.0898V44.3359C10.9375 44.987 11.1003 45.5729 11.4258 46.0938L13.1836 48.6328C13.8346 49.4792 14.681 49.9349 15.7227 50H21.7773C22.819 49.9349 23.6654 49.4792 24.3164 48.6328L26.0742 46.0938C26.3346 45.5729 26.4974 44.987 26.5625 44.3359V42.1875C26.4323 41.2109 25.9115 40.6576 25 40.5273ZM23.4375 44.3359L21.875 46.7773C21.875 46.7773 21.8424 46.7773 21.7773 46.7773C21.7122 46.8424 21.7122 46.875 21.7773 46.875H15.918C15.8529 46.875 15.7878 46.875 15.7227 46.875L14.0625 44.3359V43.75H23.4375V44.2383C23.4375 44.3034 23.4375 44.3359 23.4375 44.3359ZM30.8594 4.98047C27.4089 1.66016 23.3398 0 18.6523 0C13.8346 0.130207 9.79818 1.82292 6.54297 5.07812C3.35286 8.33333 1.69271 12.4023 1.5625 17.2852C1.6276 21.6471 3.0599 25.4557 5.85938 28.7109C6.51042 29.4922 7.25911 30.599 8.10547 32.0312C9.01693 33.3984 9.66797 34.7656 10.0586 36.1328C10.2539 37.0443 10.8398 37.5 11.8164 37.5C12.7279 37.3047 13.1836 36.7188 13.1836 35.7422L13.0859 35.4492C12.5651 33.6914 11.8164 31.9987 10.8398 30.3711C9.86328 28.7435 8.98438 27.5065 8.20312 26.6602C5.92448 23.9909 4.7526 20.8659 4.6875 17.2852C4.7526 13.2487 6.11979 9.89583 8.78906 7.22656C11.3932 4.62239 14.7135 3.25521 18.75 3.125C22.5911 3.19011 25.8789 4.55729 28.6133 7.22656C31.3477 10.026 32.7474 13.3789 32.8125 17.2852C32.7474 20.8659 31.5755 23.9909 29.2969 26.6602C28.5156 27.5065 27.6367 28.7435 26.6602 30.3711C25.6836 31.9987 24.9349 33.6914 24.4141 35.4492L24.3164 35.7422C24.2513 36.7188 24.707 37.3372 25.6836 37.5977C25.7487 37.5977 25.8138 37.5977 25.8789 37.5977C26.7253 37.5326 27.2135 37.1094 27.3438 36.3281C27.7995 34.8958 28.4505 33.4635 29.2969 32.0312C30.2083 30.599 30.9896 29.4922 31.6406 28.7109C34.4401 25.4557 35.8724 21.6471 35.9375 17.2852C35.8724 12.5326 34.1797 8.43099 30.8594 4.98047ZM20.3125 7.8125C20.2474 6.83594 19.7266 6.31511 18.75 6.25C15.625 6.31511 13.0534 7.38932 11.0352 9.47266C8.95182 11.4909 7.8776 14.0299 7.8125 17.0898C7.8776 18.1315 8.39844 18.6849 9.375 18.75C10.3516 18.6849 10.8724 18.1641 10.9375 17.1875C11.0026 14.974 11.7513 13.151 13.1836 11.7188C14.681 10.2865 16.5365 9.53776 18.75 9.47266C19.7266 9.27734 20.2474 8.72396 20.3125 7.8125Z" fill="#FF494A"/>
</svg>
