<svg width="70" height="60" viewBox="0 0 70 60" fill="none" xmlns="http://www.w3.org/2000/svg">
<path d="M16.4352 59.6486C12.0942 59.6439 7.9323 57.9173 4.86272 54.8477C1.79315 51.7782 0.0665688 47.6163 0.0618043 43.2753V43.1932C0.0618043 43.1392 0.0548041 43.0582 0.0488039 42.9512C-0.287204 37.0051 0.684818 20.9507 16.9282 0.379253C17.0745 0.194503 17.2813 0.0673432 17.5122 0.0202032C17.7431 -0.0269238 17.9832 0.00900226 18.1902 0.121643C18.3972 0.234293 18.5578 0.416413 18.6436 0.635893C18.7294 0.855373 18.735 1.09811 18.6593 1.32128C18.6133 1.45728 14.1741 14.7546 17.2072 26.9219C21.4793 27.1223 25.5033 28.9864 28.4188 32.1153C31.3343 35.2443 32.9099 39.3898 32.8085 43.6654C32.7071 47.9409 30.9369 52.0071 27.8764 54.9944C24.8158 57.9817 20.708 59.6529 16.4312 59.6506L16.4352 59.6486ZM2.06185 43.3323C2.07292 46.1726 2.9253 48.946 4.51137 51.3023C6.09745 53.6586 8.34611 55.4922 10.9734 56.5715C13.6008 57.6508 16.489 57.9275 19.2735 57.3665C22.0579 56.8056 24.6138 55.4323 26.6183 53.42C28.6229 51.4076 29.9862 48.8464 30.5363 46.0598C31.0864 43.2732 30.7985 40.3861 29.709 37.763C28.6195 35.1398 26.7772 32.8983 24.4147 31.3214C22.0523 29.7445 19.2756 28.9029 16.4352 28.9029C16.2162 28.9029 16.0033 28.8309 15.8291 28.6981C15.655 28.5653 15.5292 28.3791 15.4712 28.1679C13.1711 19.7977 14.2991 11.0175 15.4422 5.68938C2.55786 23.7378 1.74884 37.5141 2.04985 42.8392C2.06343 43.0032 2.06744 43.1678 2.06185 43.3323ZM53.6221 59.6486C49.2811 59.6439 45.1192 57.9173 42.0496 54.8477C38.98 51.7782 37.2535 47.6163 37.2487 43.2753V43.1932C37.2487 43.1392 37.2417 43.0582 37.2357 42.9512C36.8997 37.0051 37.8717 20.9507 54.1151 0.379253C54.2614 0.194503 54.4682 0.0673432 54.6991 0.0202032C54.93 -0.0269238 55.1701 0.00900226 55.3771 0.121643C55.5841 0.234293 55.7447 0.416413 55.8305 0.635893C55.9163 0.855373 55.9218 1.09811 55.8461 1.32128C55.8001 1.45728 51.361 14.7546 54.3941 26.9219C58.6662 27.1223 62.6902 28.9864 65.6057 32.1153C68.5212 35.2443 70.0968 39.3898 69.9954 43.6654C69.894 47.9409 68.1238 52.0071 65.0632 54.9944C62.0027 57.9817 57.8948 59.6529 53.6181 59.6506L53.6221 59.6486ZM39.2487 43.3323C39.2598 46.1726 40.1122 48.946 41.6983 51.3023C43.2843 53.6586 45.533 55.4922 48.1603 56.5715C50.7877 57.6508 53.6759 57.9275 56.4604 57.3665C59.2448 56.8056 61.8007 55.4323 63.8052 53.42C65.8098 51.4076 67.1731 48.8464 67.7232 46.0598C68.2733 43.2732 67.9854 40.3861 66.8959 37.763C65.8064 35.1398 63.9641 32.8983 61.6016 31.3214C59.2392 29.7445 56.4625 28.9029 53.6221 28.9029C53.4031 28.9029 53.1902 28.8309 53.016 28.6981C52.8418 28.5653 52.7161 28.3791 52.6581 28.1679C50.358 19.7977 51.486 11.0175 52.6291 5.68938C39.7448 23.7378 38.9347 37.5141 39.2357 42.8392C39.2497 43.0032 39.254 43.1678 39.2487 43.3323Z" fill="#FF494A"/>
</svg>
