<svg width="50" height="50" viewBox="0 0 50 50" fill="none" xmlns="http://www.w3.org/2000/svg">
<path d="M36.4258 1.66016C37.5326 0.618488 38.8346 0.0976562 40.332 0.0976562C41.7643 0.0976562 43.0339 0.618488 44.1406 1.66016L48.3398 5.85938C49.3815 6.96614 49.9023 8.23568 49.9023 9.66797C49.9023 11.1654 49.3815 12.4674 48.3398 13.5742L17.7734 44.1406C16.6667 45.2474 15.3646 46.0286 13.8672 46.4844L2.05078 49.9023C1.39974 50.0326 0.878906 49.9023 0.488281 49.5117C0.0325521 49.1211 -0.0976562 48.6328 0.0976562 48.0469L3.51563 36.2305C3.97135 34.668 4.7526 33.3333 5.85938 32.2266L36.4258 1.66016ZM41.9922 3.90625C40.8854 2.99479 39.7786 2.99479 38.6719 3.90625L33.3008 9.17969L40.8203 16.6016L46.0938 11.3281C47.0052 10.2214 47.0052 9.11458 46.0938 8.00781L41.9922 3.90625ZM6.54297 37.1094L3.90625 46.0938L12.8906 43.457C13.9323 43.1315 14.8437 42.6107 15.625 41.8945L38.4766 18.9453L31.0547 11.4258L8.10547 34.375C7.38932 35.1562 6.86849 36.0677 6.54297 37.1094ZM16.8945 2.63672L23.8281 9.57031L21.6797 11.8164L18.5547 8.69141L15.1367 12.0117C14.4206 12.6628 13.7044 12.6628 12.9883 12.0117C12.3372 11.2956 12.3372 10.5794 12.9883 9.86328L16.3086 6.44531L14.7461 4.88281C14.0951 4.29688 13.3464 4.00391 12.5 4.00391C11.6536 4.00391 10.9049 4.29688 10.2539 4.88281L4.88281 10.2539C4.29688 10.9049 4.00391 11.6536 4.00391 12.5C4.00391 13.3464 4.29688 14.0951 4.88281 14.7461L11.8164 21.6797L9.57031 23.8281L2.63672 16.8945C1.46484 15.6576 0.878906 14.1927 0.878906 12.5C0.878906 10.8073 1.46484 9.34245 2.63672 8.10547L8.10547 2.63672C9.34245 1.46484 10.8073 0.878906 12.5 0.878906C14.1927 0.878906 15.6576 1.46484 16.8945 2.63672ZM33.1055 47.3633L26.1719 40.4297L28.418 38.1836L35.2539 45.1172C35.9049 45.7031 36.6536 45.9961 37.5 45.9961C38.3464 45.9961 39.0951 45.7031 39.7461 45.1172L45.1172 39.7461C45.7031 39.0951 45.9961 38.3464 45.9961 37.5C45.9961 36.6536 45.7031 35.9049 45.1172 35.2539L43.5547 33.5938L40.1367 37.0117C39.4206 37.6628 38.7044 37.6628 37.9883 37.0117C37.3372 36.2956 37.3372 35.5794 37.9883 34.8633L41.3086 31.4453L38.1836 28.418L40.4297 26.1719L47.3633 33.1055C48.5352 34.3424 49.1211 35.8073 49.1211 37.5C49.1211 39.1927 48.5352 40.6576 47.3633 41.8945L41.8945 47.3633C40.6576 48.5352 39.1927 49.1211 37.5 49.1211C35.8073 49.1211 34.3424 48.5352 33.1055 47.3633Z" fill="#FF494A"/>
</svg>
