<svg width="63" height="50" viewBox="0 0 63 50" fill="none" xmlns="http://www.w3.org/2000/svg">
<path d="M53.125 31.25H54.6875C55.9896 31.3151 57.0964 31.7708 58.0078 32.6172C58.8542 33.5286 59.3099 34.6354 59.375 35.9375V42.1875C59.3099 43.4896 58.8542 44.5964 58.0078 45.5078C57.0964 46.3542 55.9896 46.8099 54.6875 46.875H48.4375C47.1354 46.8099 46.0286 46.3542 45.1172 45.5078C44.2708 44.5964 43.8151 43.4896 43.75 42.1875V35.9375C43.8151 34.6354 44.2708 33.5286 45.1172 32.6172C46.0286 31.7708 47.1354 31.3151 48.4375 31.25H50C49.9349 27.4089 48.9258 23.9909 46.9727 20.9961C44.9544 18.0013 42.2852 15.7227 38.9648 14.1602C38.9648 15.4622 38.5091 16.5365 37.5977 17.3828C36.7513 18.2943 35.6771 18.75 34.375 18.75H28.125C26.7578 18.75 25.651 18.2943 24.8047 17.3828C23.9583 16.5365 23.5026 15.4622 23.4375 14.1602C20.1823 15.7227 17.5456 18.0013 15.5273 20.9961C13.5742 23.9909 12.5651 27.4089 12.5 31.25H14.0625C15.3646 31.3151 16.4714 31.7708 17.3828 32.6172C18.2292 33.5286 18.6849 34.6354 18.75 35.9375V42.1875C18.6849 43.4896 18.2292 44.5964 17.3828 45.5078C16.4714 46.3542 15.3646 46.8099 14.0625 46.875H7.8125C6.51042 46.8099 5.40365 46.3542 4.49219 45.5078C3.64583 44.5964 3.1901 43.4896 3.125 42.1875V35.9375C3.1901 34.6354 3.64583 33.5286 4.49219 32.6172C5.40365 31.7708 6.51042 31.3151 7.8125 31.25H9.375C9.4401 27.2135 10.4167 23.5677 12.3047 20.3125C14.1927 17.0573 16.7643 14.4531 20.0195 12.5H12.207C11.8815 13.8672 11.1654 14.974 10.0586 15.8203C9.01693 16.7318 7.7474 17.1875 6.25 17.1875C4.49219 17.1224 3.02734 16.5039 1.85547 15.332C0.683594 14.1602 0.0651042 12.6953 0 10.9375C0.0651042 9.17969 0.683594 7.71484 1.85547 6.54297C3.02734 5.37109 4.49219 4.75261 6.25 4.6875C7.7474 4.6875 9.01693 5.14323 10.0586 6.05469C11.1654 6.90104 11.8815 8.00781 12.207 9.375H23.4375V7.8125C23.5026 6.51042 23.9583 5.40364 24.8047 4.49219C25.7161 3.64583 26.8229 3.19011 28.125 3.125H34.375C35.6771 3.19011 36.7839 3.64583 37.6953 4.49219C38.5417 5.40364 38.9974 6.51042 39.0625 7.8125V9.375H50.1953C50.5859 8.00781 51.3021 6.90104 52.3438 6.05469C53.4505 5.14323 54.7526 4.6875 56.25 4.6875C58.0078 4.75261 59.4727 5.37109 60.6445 6.54297C61.8164 7.71484 62.4349 9.17969 62.5 10.9375C62.4349 12.6953 61.8164 14.1602 60.6445 15.332C59.4727 16.5039 58.0078 17.1224 56.25 17.1875C54.7526 17.1875 53.4505 16.7318 52.3438 15.8203C51.3021 14.974 50.5859 13.8672 50.1953 12.5H42.4805C45.7357 14.4531 48.3073 17.0573 50.1953 20.3125C52.0833 23.5677 53.0599 27.2135 53.125 31.25ZM34.375 6.25H28.125C27.1484 6.31511 26.6276 6.83594 26.5625 7.8125V14.0625C26.6276 15.0391 27.1484 15.5599 28.125 15.625H34.375C35.3516 15.5599 35.8724 15.0391 35.9375 14.0625V7.8125C35.8724 6.83594 35.3516 6.31511 34.375 6.25ZM48.4375 34.375C47.4609 34.4401 46.9401 34.9609 46.875 35.9375V42.1875C46.9401 43.1641 47.4609 43.6849 48.4375 43.75H54.6875C55.6641 43.6849 56.1849 43.1641 56.25 42.1875V35.9375C56.1849 34.9609 55.6641 34.4401 54.6875 34.375H48.4375ZM7.8125 34.375C6.83594 34.4401 6.3151 34.9609 6.25 35.9375V42.1875C6.3151 43.1641 6.83594 43.6849 7.8125 43.75H14.0625C15.0391 43.6849 15.5599 43.1641 15.625 42.1875V35.9375C15.5599 34.9609 15.0391 34.4401 14.0625 34.375H7.8125ZM6.25 7.8125C5.33854 7.8125 4.58984 8.10547 4.00391 8.69141C3.41797 9.27734 3.125 10.026 3.125 10.9375C3.125 11.849 3.41797 12.5977 4.00391 13.1836C4.58984 13.7695 5.33854 14.0625 6.25 14.0625C7.16146 14.0625 7.91016 13.7695 8.49609 13.1836C9.08203 12.5977 9.375 11.849 9.375 10.9375C9.375 10.026 9.08203 9.27734 8.49609 8.69141C7.91016 8.10547 7.16146 7.8125 6.25 7.8125ZM56.25 7.8125C55.3385 7.8125 54.5898 8.10547 54.0039 8.69141C53.418 9.27734 53.125 10.026 53.125 10.9375C53.125 11.849 53.418 12.5977 54.0039 13.1836C54.5898 13.7695 55.3385 14.0625 56.25 14.0625C57.1615 14.0625 57.9102 13.7695 58.4961 13.1836C59.082 12.5977 59.375 11.849 59.375 10.9375C59.375 10.026 59.082 9.27734 58.4961 8.69141C57.9102 8.10547 57.1615 7.8125 56.25 7.8125Z" fill="#FF494A"/>
</svg>
