<svg width="50" height="50" viewBox="0 0 50 50" fill="none" xmlns="http://www.w3.org/2000/svg">
<path d="M0 12.5C0.0651042 10.7422 0.683594 9.27734 1.85547 8.10547C3.02734 6.93359 4.49219 6.31511 6.25 6.25H43.75C45.5078 6.31511 46.9727 6.93359 48.1445 8.10547C49.3164 9.27734 49.9349 10.7422 50 12.5V37.5C49.9349 39.2578 49.3164 40.7227 48.1445 41.8945C46.9727 43.0664 45.5078 43.6849 43.75 43.75H6.25C4.49219 43.6849 3.02734 43.0664 1.85547 41.8945C0.683594 40.7227 0.0651042 39.2578 0 37.5V12.5ZM3.125 12.5V16.4062L22.2656 30.3711C24.0885 31.6081 25.9115 31.6081 27.7344 30.3711L46.875 16.4062V12.5C46.875 11.5885 46.582 10.8398 45.9961 10.2539C45.4102 9.66797 44.6615 9.375 43.75 9.375H6.15234C5.30599 9.375 4.58984 9.66797 4.00391 10.2539C3.41797 10.8398 3.09245 11.5885 3.02734 12.5H3.125ZM3.125 20.3125V37.5C3.125 38.4115 3.41797 39.1602 4.00391 39.7461C4.58984 40.332 5.33854 40.625 6.25 40.625H43.75C44.6615 40.625 45.4102 40.332 45.9961 39.7461C46.582 39.1602 46.875 38.4115 46.875 37.5V20.3125L29.5898 32.9102C28.2227 33.9518 26.6927 34.4727 25 34.4727C23.3073 34.4727 21.7773 33.9518 20.4102 32.9102L3.125 20.3125Z" fill="#FF494A"/>
</svg>
